<svg xmlns="http://www.w3.org/2000/svg" viewBox="0 0 1280 960" preserveAspectRatio="xMidYMid slice">
  <rect width="1280" height="960" fill="#3a2818"></rect>
  
    <rect y="0" width="1280" height="960" fill="#3a2818"></rect>
    
    <rect x="40" y="120" width="1200" height="720" fill="#6a4828" rx="20"></rect>
    <rect x="40" y="120" width="1200" height="720" fill="none" stroke="#3a1f10" stroke-width="6" rx="20"></rect>
    
      <line x1="40" y1="250" x2="1240" y2="250" stroke="#4a2e18" stroke-width="2" opacity="0.6"></line>
    
      <line x1="40" y1="410" x2="1240" y2="410" stroke="#4a2e18" stroke-width="2" opacity="0.6"></line>
    
      <line x1="40" y1="570" x2="1240" y2="570" stroke="#4a2e18" stroke-width="2" opacity="0.6"></line>
    
      <line x1="40" y1="730" x2="1240" y2="730" stroke="#4a2e18" stroke-width="2" opacity="0.6"></line>
    
    
    <ellipse cx="640" cy="500" rx="380" ry="240" fill="#c89850"></ellipse>
    <ellipse cx="640" cy="480" rx="380" ry="240" fill="#d4a458"></ellipse>
    <ellipse cx="640" cy="460" rx="340" ry="200" fill="#e0b068"></ellipse>
    
    <path d="M 380 380 Q 500 350 620 340 T 900 380" stroke="#8a5828" stroke-width="8" fill="none"></path>
    <path d="M 400 450 Q 540 420 680 420 T 920 460" stroke="#8a5828" stroke-width="6" fill="none"></path>
    <path d="M 430 520 Q 580 500 720 500 T 910 530" stroke="#8a5828" stroke-width="6" fill="none"></path>
    
    <circle cx="310.64850709112665" cy="603.2432324562358" r="1.0130671027117941" fill="#f4e8c8" opacity="0.3497307257928573"></circle><circle cx="609.1800965604341" cy="528.1229760545441" r="2.1579738978700904" fill="#f4e8c8" opacity="0.6574154994684979"></circle><circle cx="743.8642358871272" cy="399.36700789466147" r="1.8897530470374466" fill="#f4e8c8" opacity="0.6210946678811811"></circle><circle cx="426.09204197821407" cy="683.6932359357496" r="1.1982623707477282" fill="#f4e8c8" opacity="0.6880564388482449"></circle><circle cx="502.91369762303793" cy="419.3851761553611" r="3.284166061992867" fill="#f4e8c8" opacity="0.5457003859335104"></circle><circle cx="538.2276146576393" cy="396.6377556093148" r="1.9058580240106822" fill="#f4e8c8" opacity="0.7892773035739593"></circle><circle cx="410.2896972498152" cy="528.775714304959" r="2.685248061560076" fill="#f4e8c8" opacity="0.5144432907941133"></circle><circle cx="700.222837033969" cy="381.1325482179798" r="1.539119181290454" fill="#f4e8c8" opacity="0.5344253965789998"></circle><circle cx="788.9106833823819" cy="302.341197835107" r="2.2520579764263386" fill="#f4e8c8" opacity="0.30521162902588833"></circle><circle cx="640.0853157465328" cy="627.4751392235601" r="3.651254726625493" fill="#f4e8c8" opacity="0.7452361449990185"></circle><circle cx="987.8946656164818" cy="404.8693453456227" r="3.2968969576647047" fill="#f4e8c8" opacity="0.4213055039690831"></circle><circle cx="931.8171192667903" cy="305.14865788858924" r="1.6656158578610638" fill="#f4e8c8" opacity="0.7059699989742725"></circle><circle cx="514.4698441788877" cy="314.926689150575" r="2.929545529940151" fill="#f4e8c8" opacity="0.47329123336256423"></circle><circle cx="571.8618471847171" cy="476.2830960205889" r="1.995219263781625" fill="#f4e8c8" opacity="0.40351667806050784"></circle><circle cx="816.4806894181364" cy="291.3510985307022" r="2.3105036624182773" fill="#f4e8c8" opacity="0.5304680401056499"></circle><circle cx="772.1909138551779" cy="345.84584271000404" r="2.541555715015521" fill="#f4e8c8" opacity="0.668362226301404"></circle><circle cx="464.440950668038" cy="552.7699102418337" r="3.9795102900103405" fill="#f4e8c8" opacity="0.4888521298266439"></circle><circle cx="810.5503956777869" cy="627.6901384597768" r="1.5982095598377482" fill="#f4e8c8" opacity="0.3713006762263049"></circle><circle cx="568.6935295479134" cy="384.8568338625524" r="1.91151174484725" fill="#f4e8c8" opacity="0.6980744874020424"></circle><circle cx="556.6331789064441" cy="292.46903607763375" r="2.540278955956893" fill="#f4e8c8" opacity="0.5935946482257682"></circle><circle cx="986.2515863102117" cy="528.6785365335378" r="2.3024095089392365" fill="#f4e8c8" opacity="0.5192794927059907"></circle><circle cx="367.3825422521637" cy="459.7407609296" r="2.3005543840235734" fill="#f4e8c8" opacity="0.511392012920747"></circle><circle cx="382.49893865054105" cy="421.47776764635734" r="3.137281238205589" fill="#f4e8c8" opacity="0.32921066764227175"></circle><circle cx="403.0968048678303" cy="456.7000822776012" r="1.007924781673113" fill="#f4e8c8" opacity="0.3673533949080867"></circle><circle cx="856.8379964549363" cy="384.9401652771662" r="3.4385348507603624" fill="#f4e8c8" opacity="0.3542029050149346"></circle><circle cx="976.5605148945237" cy="683.6623037359368" r="1.3652438539167306" fill="#f4e8c8" opacity="0.7314095840161274"></circle><circle cx="495.62668030594716" cy="551.1950048255314" r="1.4671532938866596" fill="#f4e8c8" opacity="0.3091197182844436"></circle><circle cx="442.8066438206471" cy="595.7538304712639" r="3.064955605316893" fill="#f4e8c8" opacity="0.693502758144438"></circle><circle cx="375.3330816109552" cy="440.1904029081518" r="2.553147881909659" fill="#f4e8c8" opacity="0.504545783504212"></circle><circle cx="317.54922790357836" cy="624.3876229021306" r="3.051395610746161" fill="#f4e8c8" opacity="0.4806088398710824"></circle>
  
</svg>