<svg xmlns="http://www.w3.org/2000/svg" viewBox="0 0 1280 960" preserveAspectRatio="xMidYMid slice">
  <rect width="1280" height="960" fill="#3a2818"></rect>
  
    <rect y="0" width="1280" height="960" fill="#ead9b8"></rect>
    
    <path d="M0 0 L 1280 0 L 1280 960 L 0 960 Z" fill="#e5d3ae"></path>
    <circle cx="237.71873362352324" cy="276.50074857663765" r="1" fill="#a89878" opacity="0.3"></circle><circle cx="657.3453529377348" cy="858.3204231763066" r="1" fill="#a89878" opacity="0.3"></circle><circle cx="1100.0044987853662" cy="465.12342233271346" r="1" fill="#a89878" opacity="0.3"></circle><circle cx="1085.267600442324" cy="548.570969063752" r="1" fill="#a89878" opacity="0.3"></circle><circle cx="887.7629522892844" cy="563.3673524148863" r="1" fill="#a89878" opacity="0.3"></circle><circle cx="1272.5193760642926" cy="848.0085226278205" r="1" fill="#a89878" opacity="0.3"></circle><circle cx="492.84797962774604" cy="628.7016209648298" r="1" fill="#a89878" opacity="0.3"></circle><circle cx="749.4283193051435" cy="88.1282216764065" r="1" fill="#a89878" opacity="0.3"></circle><circle cx="899.2271672298339" cy="894.4573412800088" r="1" fill="#a89878" opacity="0.3"></circle><circle cx="931.524733083804" cy="216.06326396760846" r="1" fill="#a89878" opacity="0.3"></circle><circle cx="1224.7925724606414" cy="146.50035933333493" r="1" fill="#a89878" opacity="0.3"></circle><circle cx="822.4045648381712" cy="647.1672604893027" r="1" fill="#a89878" opacity="0.3"></circle><circle cx="16.889798474235675" cy="63.58025107855518" r="1" fill="#a89878" opacity="0.3"></circle><circle cx="530.0232514230811" cy="43.70936098045959" r="1" fill="#a89878" opacity="0.3"></circle><circle cx="764.365072826407" cy="390.66111224250005" r="1" fill="#a89878" opacity="0.3"></circle><circle cx="418.9986488293232" cy="883.2938006544147" r="1" fill="#a89878" opacity="0.3"></circle><circle cx="769.858335754256" cy="140.35898432345226" r="1" fill="#a89878" opacity="0.3"></circle><circle cx="495.9242005215167" cy="128.7106833498875" r="1" fill="#a89878" opacity="0.3"></circle><circle cx="415.17664667656874" cy="872.0904456755653" r="1" fill="#a89878" opacity="0.3"></circle><circle cx="537.1102749413609" cy="387.36831332686626" r="1" fill="#a89878" opacity="0.3"></circle><circle cx="1119.8597595084675" cy="590.9267928410952" r="1" fill="#a89878" opacity="0.3"></circle><circle cx="1176.2532130535546" cy="264.56919511447916" r="1" fill="#a89878" opacity="0.3"></circle><circle cx="532.5390527977056" cy="169.09527221966127" r="1" fill="#a89878" opacity="0.3"></circle><circle cx="89.08011597484816" cy="692.863174056276" r="1" fill="#a89878" opacity="0.3"></circle><circle cx="796.9609216212417" cy="55.543881572929195" r="1" fill="#a89878" opacity="0.3"></circle><circle cx="293.2719913971117" cy="285.9759380782372" r="1" fill="#a89878" opacity="0.3"></circle><circle cx="506.5915040819044" cy="210.93236409571938" r="1" fill="#a89878" opacity="0.3"></circle><circle cx="1160.1492374542026" cy="786.3172665943175" r="1" fill="#a89878" opacity="0.3"></circle><circle cx="1043.8778833283423" cy="762.0971756519031" r="1" fill="#a89878" opacity="0.3"></circle><circle cx="762.0430581019925" cy="865.966082255931" r="1" fill="#a89878" opacity="0.3"></circle><circle cx="1089.5446034608678" cy="892.2078291794569" r="1" fill="#a89878" opacity="0.3"></circle><circle cx="325.58594889201004" cy="370.41342992411865" r="1" fill="#a89878" opacity="0.3"></circle><circle cx="774.3958337424951" cy="258.57879879912855" r="1" fill="#a89878" opacity="0.3"></circle><circle cx="463.5423752052216" cy="951.7040215759256" r="1" fill="#a89878" opacity="0.3"></circle><circle cx="1154.6492423721031" cy="622.539319895846" r="1" fill="#a89878" opacity="0.3"></circle><circle cx="891.9368438018262" cy="173.6239323259471" r="1" fill="#a89878" opacity="0.3"></circle><circle cx="135.47175219523425" cy="646.045407699765" r="1" fill="#a89878" opacity="0.3"></circle><circle cx="1232.1060879625902" cy="336.5239260425921" r="1" fill="#a89878" opacity="0.3"></circle><circle cx="577.0983805359579" cy="615.7704290326163" r="1" fill="#a89878" opacity="0.3"></circle><circle cx="547.6288299139713" cy="147.26313022758674" r="1" fill="#a89878" opacity="0.3"></circle><circle cx="965.726122942724" cy="910.8363144177166" r="1" fill="#a89878" opacity="0.3"></circle><circle cx="128.37313112285003" cy="466.2119693767324" r="1" fill="#a89878" opacity="0.3"></circle><circle cx="1178.7343447595388" cy="686.783724404482" r="1" fill="#a89878" opacity="0.3"></circle><circle cx="1248.7410255282114" cy="20.183516314650483" r="1" fill="#a89878" opacity="0.3"></circle><circle cx="252.4029381006777" cy="685.7510920331465" r="1" fill="#a89878" opacity="0.3"></circle><circle cx="607.994978747588" cy="603.1211551664684" r="1" fill="#a89878" opacity="0.3"></circle><circle cx="371.94825956589466" cy="714.1621804940012" r="1" fill="#a89878" opacity="0.3"></circle><circle cx="594.1513074708721" cy="611.602611779577" r="1" fill="#a89878" opacity="0.3"></circle><circle cx="632.7306290148623" cy="428.4794386583834" r="1" fill="#a89878" opacity="0.3"></circle><circle cx="806.5302216449779" cy="685.2974186851391" r="1" fill="#a89878" opacity="0.3"></circle>
    
    
      <ellipse cx="400" cy="340" rx="200" ry="150" fill="#a85030"></ellipse>
      <ellipse cx="400" cy="336" rx="195" ry="146" fill="#c86040"></ellipse>
      
      <path d="M 220 240 Q 400 180 580 240" stroke="#f0e0b8" stroke-width="24" fill="none"></path>
      
      <ellipse cx="460" cy="370" rx="40" ry="24" fill="#f4e8c0"></ellipse>
      <ellipse cx="460" cy="370" rx="34" ry="18" fill="#e0d0a0"></ellipse>
      
      <path d="M 320 320 Q 360 340 400 330" stroke="#e0a080" stroke-width="4" fill="none" opacity="0.7"></path>
      <path d="M 340 370 Q 380 380 420 360" stroke="#e0a080" stroke-width="3" fill="none" opacity="0.7"></path>
    
      <ellipse cx="640" cy="480" rx="200" ry="150" fill="#a85030"></ellipse>
      <ellipse cx="640" cy="476" rx="195" ry="146" fill="#c86040"></ellipse>
      
      <path d="M 460 380 Q 640 320 820 380" stroke="#f0e0b8" stroke-width="24" fill="none"></path>
      
      <ellipse cx="700" cy="510" rx="40" ry="24" fill="#f4e8c0"></ellipse>
      <ellipse cx="700" cy="510" rx="34" ry="18" fill="#e0d0a0"></ellipse>
      
      <path d="M 560 460 Q 600 480 640 470" stroke="#e0a080" stroke-width="4" fill="none" opacity="0.7"></path>
      <path d="M 580 510 Q 620 520 660 500" stroke="#e0a080" stroke-width="3" fill="none" opacity="0.7"></path>
    
      <ellipse cx="880" cy="620" rx="200" ry="150" fill="#a85030"></ellipse>
      <ellipse cx="880" cy="616" rx="195" ry="146" fill="#c86040"></ellipse>
      
      <path d="M 700 520 Q 880 460 1060 520" stroke="#f0e0b8" stroke-width="24" fill="none"></path>
      
      <ellipse cx="940" cy="650" rx="40" ry="24" fill="#f4e8c0"></ellipse>
      <ellipse cx="940" cy="650" rx="34" ry="18" fill="#e0d0a0"></ellipse>
      
      <path d="M 800 600 Q 840 620 880 610" stroke="#e0a080" stroke-width="4" fill="none" opacity="0.7"></path>
      <path d="M 820 650 Q 860 660 900 640" stroke="#e0a080" stroke-width="3" fill="none" opacity="0.7"></path>
    
  
</svg>